<svg width="18" height="18" viewBox="0 0 18 18" fill="none" xmlns="http://www.w3.org/2000/svg">
<path fill-rule="evenodd" clip-rule="evenodd" d="M8.8461 0C6.60442 0 4.56175 0.746062 3.35332 1.35561C3.24414 1.41062 3.1424 1.46462 3.04761 1.51663C2.86002 1.61963 2.70022 1.71564 2.57317 1.80015L3.94786 3.83932L4.595 4.09884C7.12403 5.38445 10.5156 5.38445 13.0451 4.09884L13.7796 3.71481L15.0798 1.80015C14.8105 1.62313 14.5303 1.4633 14.2411 1.32161C13.0391 0.71856 11.0456 0 8.8461 0ZM5.6486 2.30819C5.16181 2.21641 4.68102 2.09484 4.2089 1.94416C5.3409 1.43762 7.02824 0.900075 8.84561 0.900075C10.1047 0.900075 11.2952 1.1581 12.2798 1.48512C11.126 1.64864 9.89474 1.92616 8.72154 2.26769C7.79846 2.53671 6.71956 2.50771 5.6486 2.30819ZM13.5692 4.8404L13.4476 4.90241C10.665 6.31653 6.97465 6.31653 4.19202 4.90241L4.07689 4.8434C-0.10275 9.46429 -3.29381 18 8.8461 18C20.985 18 17.716 9.30478 13.5692 4.8404ZM8.32998 9.00075C8.06674 9.00075 7.81428 9.10612 7.62814 9.29367C7.442 9.48122 7.33742 9.73559 7.33742 10.0008C7.33742 10.2661 7.442 10.5204 7.62814 10.708C7.81428 10.8956 8.06674 11.0009 8.32998 11.0009V9.00075ZM9.32253 8.00067V7.50063H8.32998V8.00067C7.80349 8.00067 7.29857 8.2114 6.9263 8.5865C6.55402 8.96161 6.34487 9.47036 6.34487 10.0008C6.34487 10.5313 6.55402 11.0401 6.9263 11.4152C7.29857 11.7903 7.80349 12.001 8.32998 12.001V14.0012C8.12471 14.0012 7.92448 13.9371 7.75685 13.8178C7.58923 13.6984 7.46246 13.5296 7.394 13.3346C7.35017 13.2096 7.25883 13.1072 7.14007 13.05C7.02132 12.9928 6.88487 12.9854 6.76075 13.0296C6.63663 13.0737 6.53501 13.1658 6.47824 13.2854C6.42146 13.4051 6.41419 13.5426 6.45802 13.6676C6.59492 14.0577 6.84844 14.3953 7.18368 14.6342C7.51892 14.873 7.9194 15.0012 8.32998 15.0013V15.5013H9.32253V15.0013C9.84901 15.0013 10.3539 14.7905 10.7262 14.4154C11.0985 14.0403 11.3076 13.5316 11.3076 13.0011C11.3076 12.4706 11.0985 11.9619 10.7262 11.5868C10.3539 11.2116 9.84901 11.0009 9.32253 11.0009V9.00075C9.75429 9.00075 10.122 9.27827 10.259 9.66731C10.2793 9.73095 10.3121 9.78985 10.3554 9.84051C10.3987 9.89117 10.4517 9.93256 10.5111 9.96224C10.5706 9.99192 10.6354 10.0093 10.7016 10.0133C10.7678 10.0173 10.8342 10.0079 10.8968 9.98565C10.9593 9.96337 11.0168 9.92868 11.0659 9.88363C11.1149 9.83857 11.1544 9.78407 11.1822 9.72334C11.21 9.66261 11.2253 9.59689 11.2275 9.53006C11.2296 9.46324 11.2184 9.39666 11.1945 9.33428C11.0576 8.94426 10.8041 8.60659 10.4688 8.36775C10.1336 8.12892 9.73311 8.00067 9.32253 8.00067ZM9.32253 12.001V14.0012C9.58577 14.0012 9.83823 13.8958 10.0244 13.7083C10.2105 13.5207 10.3151 13.2663 10.3151 13.0011C10.3151 12.7358 10.2105 12.4815 10.0244 12.2939C9.83823 12.1064 9.58577 12.001 9.32253 12.001Z" fill="#023887"/>
</svg>
