<svg width="17" height="18" viewBox="0 0 17 18" fill="none" xmlns="http://www.w3.org/2000/svg">
<path fill-rule="evenodd" clip-rule="evenodd" d="M8.51896 0C6.27728 0 4.2346 0.746062 3.02617 1.35561C2.91699 1.41062 2.81525 1.46462 2.72046 1.51663C2.53287 1.61963 2.37307 1.71564 2.24602 1.80015L3.62071 3.83932L4.26785 4.09884C6.79688 5.38445 10.1884 5.38445 12.7179 4.09884L13.4524 3.71481L14.7527 1.80015C14.4833 1.62313 14.2032 1.4633 13.914 1.32161C12.712 0.71856 10.7185 0 8.51896 0ZM5.32145 2.30819C4.83466 2.21641 4.35387 2.09484 3.88175 1.94416C5.01376 1.43762 6.7011 0.900075 8.51846 0.900075C9.77751 0.900075 10.9681 1.1581 11.9527 1.48512C10.7988 1.64864 9.56759 1.92616 8.39439 2.26769C7.47132 2.53671 6.39241 2.50771 5.32145 2.30819ZM13.242 4.8404L13.1204 4.90241C10.3378 6.31653 6.6475 6.31653 3.86488 4.90241L3.74974 4.8434C-0.429899 9.46429 -3.62095 18 8.51896 18C20.6579 18 17.3889 9.30478 13.242 4.8404ZM8.00283 9.00075C7.73959 9.00075 7.48713 9.10612 7.30099 9.29367C7.11485 9.48122 7.01028 9.73559 7.01028 10.0008C7.01028 10.2661 7.11485 10.5204 7.30099 10.708C7.48713 10.8956 7.73959 11.0009 8.00283 11.0009V9.00075ZM8.99538 8.00067V7.50063H8.00283V8.00067C7.47635 8.00067 6.97143 8.2114 6.59915 8.5865C6.22687 8.96161 6.01772 9.47036 6.01772 10.0008C6.01772 10.5313 6.22687 11.0401 6.59915 11.4152C6.97143 11.7903 7.47635 12.001 8.00283 12.001V14.0012C7.79756 14.0012 7.59733 13.9371 7.4297 13.8178C7.26208 13.6984 7.13531 13.5296 7.06685 13.3346C7.02302 13.2096 6.93168 13.1072 6.81292 13.05C6.69417 12.9928 6.55772 12.9854 6.4336 13.0296C6.30948 13.0737 6.20786 13.1658 6.15109 13.2854C6.09432 13.4051 6.08704 13.5426 6.13087 13.6676C6.26777 14.0577 6.52129 14.3953 6.85653 14.6342C7.19177 14.873 7.59225 15.0012 8.00283 15.0013V15.5013H8.99538V15.0013C9.52186 15.0013 10.0268 14.7905 10.3991 14.4154C10.7713 14.0403 10.9805 13.5316 10.9805 13.0011C10.9805 12.4706 10.7713 11.9619 10.3991 11.5868C10.0268 11.2116 9.52186 11.0009 8.99538 11.0009V9.00075C9.42714 9.00075 9.79488 9.27827 9.93185 9.66731C9.95218 9.73095 9.98496 9.78985 10.0283 9.84051C10.0716 9.89117 10.1245 9.93256 10.184 9.96224C10.2434 9.99192 10.3082 10.0093 10.3744 10.0133C10.4407 10.0173 10.507 10.0079 10.5696 9.98565C10.6322 9.96337 10.6897 9.92868 10.7387 9.88363C10.7877 9.83857 10.8273 9.78407 10.8551 9.72334C10.8828 9.66261 10.8982 9.59689 10.9003 9.53006C10.9024 9.46324 10.8912 9.39666 10.8673 9.33428C10.7304 8.94426 10.4769 8.60659 10.1417 8.36775C9.80644 8.12892 9.40596 8.00067 8.99538 8.00067ZM8.99538 12.001V14.0012C9.25862 14.0012 9.51108 13.8958 9.69722 13.7083C9.88336 13.5207 9.98793 13.2663 9.98793 13.0011C9.98793 12.7358 9.88336 12.4815 9.69722 12.2939C9.51108 12.1064 9.25862 12.001 8.99538 12.001Z" fill="white"/>
</svg>
