<svg width="22" height="17" viewBox="0 0 22 17" fill="none" xmlns="http://www.w3.org/2000/svg">
<path d="M17.1271 7.4375V9.5625H21.3271V7.4375H17.1271ZM15.0271 14.4606C16.0351 15.215 17.3476 16.2138 18.3871 17C18.8071 16.4369 19.2271 15.8631 19.6471 15.3C18.6076 14.5137 17.2951 13.515 16.2871 12.75C15.8671 13.3238 15.4471 13.8975 15.0271 14.4606ZM19.6471 1.7C19.2271 1.13687 18.8071 0.563125 18.3871 0C17.3476 0.78625 16.0351 1.785 15.0271 2.55C15.4471 3.11313 15.8671 3.68688 16.2871 4.25C17.2951 3.485 18.6076 2.49687 19.6471 1.7ZM2.42715 5.3125C1.27215 5.3125 0.327148 6.26875 0.327148 7.4375V9.5625C0.327148 10.7312 1.27215 11.6875 2.42715 11.6875H3.47715V15.9375H5.57715V11.6875H6.62715L11.8771 14.875V2.125L6.62715 5.3125H2.42715ZM14.5021 8.5C14.5021 7.08687 13.8931 5.81187 12.9271 4.94062V12.0487C13.8931 11.1881 14.5021 9.91313 14.5021 8.5Z" fill="#023887"/>
</svg>
