<svg width="27" height="22" viewBox="0 0 27 22" fill="none" xmlns="http://www.w3.org/2000/svg">
<path d="M21.6 9.625V12.375H27V9.625H21.6ZM18.9 18.7138C20.196 19.69 21.8835 20.9825 23.22 22C23.76 21.2712 24.3 20.5287 24.84 19.8C23.5035 18.7825 21.816 17.49 20.52 16.5C19.98 17.2425 19.44 17.985 18.9 18.7138ZM24.84 2.2C24.3 1.47125 23.76 0.72875 23.22 0C21.8835 1.0175 20.196 2.31 18.9 3.3C19.44 4.02875 19.98 4.77125 20.52 5.5C21.816 4.51 23.5035 3.23125 24.84 2.2ZM2.7 6.875C1.215 6.875 0 8.1125 0 9.625V12.375C0 13.8875 1.215 15.125 2.7 15.125H4.05V20.625H6.75V15.125H8.1L14.85 19.25V2.75L8.1 6.875H2.7ZM18.225 11C18.225 9.17125 17.442 7.52125 16.2 6.39375V15.5925C17.442 14.4788 18.225 12.8287 18.225 11Z" fill="white"/>
</svg>
