<svg width="20" height="20" viewBox="0 0 20 20" fill="none" xmlns="http://www.w3.org/2000/svg">
<path d="M13.7282 4.50664L15.4932 6.27081L13.7282 4.50664ZM14.8632 2.95248L10.0907 7.72498C9.84408 7.97123 9.6759 8.28496 9.60734 8.62664L9.1665 10.8333L11.3732 10.3916C11.7148 10.3233 12.0282 10.1558 12.2748 9.90914L17.0473 5.13664C17.1908 4.99323 17.3045 4.82297 17.3821 4.63559C17.4597 4.44821 17.4997 4.24738 17.4997 4.04456C17.4997 3.84174 17.4597 3.64091 17.3821 3.45353C17.3045 3.26615 17.1908 3.09589 17.0473 2.95248C16.9039 2.80906 16.7337 2.6953 16.5463 2.61769C16.3589 2.54007 16.1581 2.50012 15.9553 2.50012C15.7524 2.50012 15.5516 2.54007 15.3642 2.61769C15.1768 2.6953 15.0066 2.80906 14.8632 2.95248V2.95248Z" stroke="#009EF7" stroke-width="2" stroke-linecap="round" stroke-linejoin="round"/>
<path d="M15.8333 12.5V15C15.8333 15.442 15.6577 15.8659 15.3451 16.1785C15.0325 16.491 14.6086 16.6666 14.1666 16.6666H4.99992C4.55789 16.6666 4.13397 16.491 3.82141 16.1785C3.50885 15.8659 3.33325 15.442 3.33325 15V5.83329C3.33325 5.39127 3.50885 4.96734 3.82141 4.65478C4.13397 4.34222 4.55789 4.16663 4.99992 4.16663H7.49992" stroke="#009EF7" stroke-width="2" stroke-linecap="round" stroke-linejoin="round"/>
</svg>
