<svg width="20" height="20" viewBox="0 0 20 20" fill="none" xmlns="http://www.w3.org/2000/svg">
<path d="M13.7287 4.50666L15.4937 6.27083L13.7287 4.50666ZM14.8637 2.95249L10.0912 7.72499C9.84457 7.97124 9.67639 8.28498 9.60783 8.62666L9.16699 10.8333L11.3737 10.3917C11.7153 10.3233 12.0287 10.1558 12.2753 9.90916L17.0478 5.13666C17.1912 4.99325 17.305 4.82299 17.3826 4.63561C17.4602 4.44823 17.5002 4.24739 17.5002 4.04458C17.5002 3.84176 17.4602 3.64092 17.3826 3.45354C17.305 3.26616 17.1912 3.09591 17.0478 2.95249C16.9044 2.80908 16.7342 2.69532 16.5468 2.6177C16.3594 2.54009 16.1586 2.50014 15.9557 2.50014C15.7529 2.50014 15.5521 2.54009 15.3647 2.6177C15.1773 2.69532 15.0071 2.80908 14.8637 2.95249V2.95249Z" stroke="white" stroke-width="1.5" stroke-linecap="round" stroke-linejoin="round"/>
<path d="M15.8335 12.5V15C15.8335 15.442 15.6579 15.8659 15.3453 16.1785C15.0328 16.4911 14.6089 16.6667 14.1668 16.6667H5.00016C4.55814 16.6667 4.13421 16.4911 3.82165 16.1785C3.50909 15.8659 3.3335 15.442 3.3335 15V5.83332C3.3335 5.3913 3.50909 4.96737 3.82165 4.65481C4.13421 4.34225 4.55814 4.16666 5.00016 4.16666H7.50016" stroke="white" stroke-width="1.5" stroke-linecap="round" stroke-linejoin="round"/>
</svg>
