<svg width="20" height="20" viewBox="0 0 20 20" fill="none" xmlns="http://www.w3.org/2000/svg">
<path d="M9.9915 1.66675C5.3915 1.66675 1.6665 5.40008 1.6665 10.0001C1.6665 14.6001 5.3915 18.3334 9.9915 18.3334C14.5998 18.3334 18.3332 14.6001 18.3332 10.0001C18.3332 5.40008 14.5998 1.66675 9.9915 1.66675ZM9.99984 16.6667C6.3165 16.6667 3.33317 13.6834 3.33317 10.0001C3.33317 6.31675 6.3165 3.33341 9.99984 3.33341C13.6832 3.33341 16.6665 6.31675 16.6665 10.0001C16.6665 13.6834 13.6832 16.6667 9.99984 16.6667Z" fill="#343434"/>
<path d="M10.4165 5.83325H9.1665V10.8333L13.5415 13.4583L14.1665 12.4333L10.4165 10.2083V5.83325Z" fill="#343434"/>
</svg>
