<svg width="18" height="18" viewBox="0 0 18 18" fill="none" xmlns="http://www.w3.org/2000/svg">
<path d="M8.99984 0.666687C4.40484 0.666687 0.666504 4.40502 0.666504 9.00002C0.666504 13.595 4.40484 17.3334 8.99984 17.3334C13.5948 17.3334 17.3332 13.595 17.3332 9.00002C17.3332 4.40502 13.5948 0.666687 8.99984 0.666687ZM9.83317 14H8.1665V12.3334H9.83317V14ZM10.6465 9.92919C10.4832 10.0609 10.3257 10.1867 10.2007 10.3117C9.86067 10.6509 9.834 10.9592 9.83317 10.9725V11.0834H8.1665V10.9442C8.1665 10.8459 8.19067 9.96335 9.0215 9.13252C9.184 8.97002 9.38567 8.80502 9.59734 8.63335C10.209 8.13752 10.6107 7.77585 10.6107 7.27752C10.601 6.85654 10.4269 6.45606 10.1257 6.16179C9.82452 5.86751 9.42011 5.7028 8.99901 5.70291C8.57792 5.70302 8.17359 5.86794 7.87254 6.16237C7.57149 6.4568 7.39764 6.85737 7.38817 7.27835H5.7215C5.7215 5.47085 7.19234 4.00002 8.99984 4.00002C10.8073 4.00002 12.2782 5.47085 12.2782 7.27835C12.2782 8.60919 11.2957 9.40335 10.6465 9.92919Z" fill="#343434"/>
</svg>
