<svg width="19" height="17" viewBox="0 0 19 17" fill="none" xmlns="http://www.w3.org/2000/svg">
<path d="M8.21658 3.5L8.66658 3.00833V6C8.66658 6.22101 8.75438 6.43298 8.91066 6.58926C9.06694 6.74554 9.2789 6.83333 9.49992 6.83333C9.72093 6.83333 9.93289 6.74554 10.0892 6.58926C10.2455 6.43298 10.3333 6.22101 10.3333 6V3.00833L10.7833 3.46667C10.8589 3.5521 10.9513 3.62109 11.0547 3.66936C11.1581 3.71763 11.2703 3.74415 11.3844 3.74727C11.4984 3.7504 11.6119 3.73006 11.7178 3.68753C11.8237 3.64499 11.9197 3.58117 11.9999 3.5C12.078 3.42253 12.14 3.33036 12.1823 3.22881C12.2246 3.12726 12.2464 3.01834 12.2464 2.90833C12.2464 2.79832 12.2246 2.6894 12.1823 2.58785C12.14 2.4863 12.078 2.39414 11.9999 2.31667L10.0916 0.408333C10.0123 0.332466 9.91888 0.272995 9.81658 0.233333C9.6137 0.149985 9.38614 0.149985 9.18325 0.233333C9.08096 0.272995 8.9875 0.332466 8.90825 0.408333L6.99992 2.28333C6.83858 2.44467 6.74794 2.6635 6.74794 2.89167C6.74794 3.11984 6.83858 3.33866 6.99992 3.5C7.16126 3.66134 7.38008 3.75198 7.60825 3.75198C7.83642 3.75198 8.05524 3.66134 8.21658 3.5ZM9.49992 8.5C9.00546 8.5 8.52211 8.64662 8.11099 8.92133C7.69987 9.19603 7.37944 9.58648 7.19022 10.0433C7.001 10.5001 6.95149 11.0028 7.04795 11.4877C7.14442 11.9727 7.38252 12.4181 7.73215 12.7678C8.08178 13.1174 8.52724 13.3555 9.01219 13.452C9.49714 13.5484 9.99981 13.4989 10.4566 13.3097C10.9134 13.1205 11.3039 12.8 11.5786 12.3889C11.8533 11.9778 11.9999 11.4945 11.9999 11C11.9999 10.337 11.7365 9.70107 11.2677 9.23223C10.7988 8.76339 10.163 8.5 9.49992 8.5ZM9.49992 11.8333C9.3351 11.8333 9.17398 11.7845 9.03694 11.6929C8.8999 11.6013 8.79309 11.4712 8.73002 11.3189C8.66695 11.1666 8.65044 10.9991 8.6826 10.8374C8.71475 10.6758 8.79412 10.5273 8.91066 10.4107C9.02721 10.2942 9.17569 10.2148 9.33734 10.1827C9.49899 10.1505 9.66655 10.167 9.81882 10.2301C9.97109 10.2932 10.1012 10.4 10.1928 10.537C10.2844 10.6741 10.3333 10.8352 10.3333 11C10.3333 11.221 10.2455 11.433 10.0892 11.5893C9.93289 11.7455 9.72093 11.8333 9.49992 11.8333ZM3.66658 11C3.66658 11.1648 3.71546 11.3259 3.80703 11.463C3.89859 11.6 4.02874 11.7068 4.18102 11.7699C4.33329 11.833 4.50084 11.8495 4.66249 11.8173C4.82414 11.7852 4.97263 11.7058 5.08917 11.5893C5.20572 11.4727 5.28508 11.3242 5.31724 11.1626C5.34939 11.0009 5.33289 10.8334 5.26982 10.6811C5.20674 10.5288 5.09993 10.3987 4.96289 10.3071C4.82585 10.2155 4.66474 10.1667 4.49992 10.1667C4.2789 10.1667 4.06694 10.2545 3.91066 10.4107C3.75438 10.567 3.66658 10.779 3.66658 11ZM15.3333 11C15.3333 10.8352 15.2844 10.6741 15.1928 10.537C15.1012 10.4 14.9711 10.2932 14.8188 10.2301C14.6665 10.167 14.499 10.1505 14.3373 10.1827C14.1757 10.2148 14.0272 10.2942 13.9107 10.4107C13.7941 10.5273 13.7148 10.6758 13.6826 10.8374C13.6504 10.9991 13.6669 11.1666 13.73 11.3189C13.7931 11.4712 13.8999 11.6013 14.0369 11.6929C14.174 11.7845 14.3351 11.8333 14.4999 11.8333C14.7209 11.8333 14.9329 11.7455 15.0892 11.5893C15.2455 11.433 15.3333 11.221 15.3333 11ZM16.1666 5.16667H12.8333C12.6122 5.16667 12.4003 5.25446 12.244 5.41074C12.0877 5.56702 11.9999 5.77899 11.9999 6C11.9999 6.22101 12.0877 6.43298 12.244 6.58926C12.4003 6.74554 12.6122 6.83333 12.8333 6.83333H16.1666C16.3876 6.83333 16.5996 6.92113 16.7558 7.07741C16.9121 7.23369 16.9999 7.44565 16.9999 7.66667V14.3333C16.9999 14.5543 16.9121 14.7663 16.7558 14.9226C16.5996 15.0789 16.3876 15.1667 16.1666 15.1667H2.83325C2.61224 15.1667 2.40028 15.0789 2.244 14.9226C2.08772 14.7663 1.99992 14.5543 1.99992 14.3333V7.66667C1.99992 7.44565 2.08772 7.23369 2.244 7.07741C2.40028 6.92113 2.61224 6.83333 2.83325 6.83333H6.16658C6.3876 6.83333 6.59956 6.74554 6.75584 6.58926C6.91212 6.43298 6.99992 6.22101 6.99992 6C6.99992 5.77899 6.91212 5.56702 6.75584 5.41074C6.59956 5.25446 6.3876 5.16667 6.16658 5.16667H2.83325C2.17021 5.16667 1.53433 5.43006 1.06548 5.8989C0.596644 6.36774 0.333252 7.00362 0.333252 7.66667V14.3333C0.333252 14.9964 0.596644 15.6323 1.06548 16.1011C1.53433 16.5699 2.17021 16.8333 2.83325 16.8333H16.1666C16.8296 16.8333 17.4655 16.5699 17.9344 16.1011C18.4032 15.6323 18.6666 14.9964 18.6666 14.3333V7.66667C18.6666 7.00362 18.4032 6.36774 17.9344 5.8989C17.4655 5.43006 16.8296 5.16667 16.1666 5.16667Z" fill="#343434"/>
</svg>
