<svg width="14" height="13" viewBox="0 0 14 13" fill="none" xmlns="http://www.w3.org/2000/svg">
<path d="M8.92281 8.66233C9.59885 8.66233 10.1475 9.22827 10.1475 9.92559L10.1468 10.62C10.2287 12.2009 9.08937 13 7.04517 13C5.00867 13 3.84906 12.2132 3.84906 10.6475V9.92559C3.84906 9.22827 4.39772 8.66233 5.07376 8.66233H8.92281ZM1.2247 5.05303H4.28715C4.16504 5.54317 4.16974 6.05777 4.30077 6.54545C4.4318 7.03313 4.68458 7.47681 5.03387 7.83219L5.14724 7.9412L5.07376 7.94047C4.65374 7.94032 4.2452 8.0819 3.91049 8.34361C3.57576 8.60532 3.33324 8.9728 3.21991 9.38997L3.19612 9.39069C1.15962 9.39069 0 8.60386 0 7.03815V6.31629C0 5.61897 0.548666 5.05303 1.2247 5.05303ZM12.7719 5.05303C13.4479 5.05303 13.9966 5.61897 13.9966 6.31629L13.9959 7.01072C14.0778 8.59159 12.9384 9.39069 10.8942 9.39069L10.776 9.38925C10.6684 8.99605 10.446 8.64656 10.1391 8.38826C9.83225 8.12996 9.45571 7.97538 9.06068 7.94553L8.92281 7.94047L8.84933 7.9412C9.23782 7.58923 9.52393 7.13292 9.67579 6.62311C9.82765 6.11329 9.83929 5.56999 9.70942 5.05375L12.7719 5.05303ZM6.99829 3.60931C7.27399 3.60931 7.547 3.66532 7.80172 3.77415C8.05645 3.88298 8.28789 4.0425 8.48285 4.24359C8.6778 4.44468 8.83245 4.68342 8.93796 4.94616C9.04347 5.2089 9.09777 5.4905 9.09777 5.77489C9.09777 6.05928 9.04347 6.34088 8.93796 6.60362C8.83245 6.86636 8.6778 7.1051 8.48285 7.30619C8.28789 7.50728 8.05645 7.6668 7.80172 7.77563C7.547 7.88446 7.27399 7.94047 6.99829 7.94047C6.44147 7.94047 5.90745 7.71231 5.51372 7.30619C5.11999 6.90006 4.8988 6.34924 4.8988 5.77489C4.8988 5.20054 5.11999 4.64972 5.51372 4.24359C5.90745 3.83747 6.44147 3.60931 6.99829 3.60931ZM3.14923 0C3.70605 0 4.24006 0.228159 4.63379 0.634285C5.02752 1.04041 5.24871 1.59124 5.24871 2.16558C5.24871 2.73993 5.02752 3.29076 4.63379 3.69688C4.24006 4.10301 3.70605 4.33117 3.14923 4.33117C2.59241 4.33117 2.0584 4.10301 1.66467 3.69688C1.27094 3.29076 1.04974 2.73993 1.04974 2.16558C1.04974 1.59124 1.27094 1.04041 1.66467 0.634285C2.0584 0.228159 2.59241 0 3.14923 0ZM10.8473 0C11.4042 0 11.9382 0.228159 12.3319 0.634285C12.7256 1.04041 12.9468 1.59124 12.9468 2.16558C12.9468 2.73993 12.7256 3.29076 12.3319 3.69688C11.9382 4.10301 11.4042 4.33117 10.8473 4.33117C10.2905 4.33117 9.75651 4.10301 9.36278 3.69688C8.96905 3.29076 8.74786 2.73993 8.74786 2.16558C8.74786 1.59124 8.96905 1.04041 9.36278 0.634285C9.75651 0.228159 10.2905 0 10.8473 0Z" fill="white"/>
</svg>
