<svg width="19" height="19" viewBox="0 0 19 19" fill="none" xmlns="http://www.w3.org/2000/svg">
<path d="M18.7339 3V5H15.8715V8H13.9633V5H11.1009V3H13.9633V0H15.8715V3H18.7339ZM10.6238 10C11.0035 9.99987 11.3676 9.84165 11.636 9.56016C11.9044 9.27867 12.0551 8.89696 12.055 8.499C12.0549 8.10104 11.9039 7.71944 11.6354 7.43813C11.3668 7.15683 11.0026 6.99887 10.6229 6.999C10.4349 6.99907 10.2487 7.03794 10.075 7.11341C9.90135 7.18888 9.74356 7.29946 9.61066 7.43884C9.47776 7.57822 9.37236 7.74367 9.30047 7.92575C9.22858 8.10782 9.19161 8.30295 9.19167 8.5C9.19174 8.69705 9.22883 8.89215 9.30084 9.07418C9.37284 9.2562 9.47835 9.42158 9.61134 9.56087C9.74433 9.70016 9.90219 9.81063 10.0759 9.88597C10.2496 9.96132 10.4358 10.0001 10.6238 10ZM13.9633 13.234L13.4738 12.664C13.2948 12.4552 13.0759 12.2881 12.8313 12.1738C12.5867 12.0595 12.3219 12.0004 12.0541 12.0004C11.7862 12.0004 11.5214 12.0595 11.2768 12.1738C11.0322 12.2881 10.8133 12.4552 10.6343 12.664L10.0084 13.395L5.37611 8L2.51373 11.333V5H9.19263V3H2.51373C2.00762 3 1.52225 3.21071 1.16438 3.58579C0.806517 3.96086 0.605469 4.46957 0.605469 5V17C0.605469 17.5304 0.806517 18.0391 1.16438 18.4142C1.52225 18.7893 2.00762 19 2.51373 19H13.9633C14.4694 19 14.9547 18.7893 15.3126 18.4142C15.6705 18.0391 15.8715 17.5304 15.8715 17V10H13.9633V13.234Z" fill="#343434"/>
</svg>
