<svg width="21" height="20" viewBox="0 0 21 20" fill="none" xmlns="http://www.w3.org/2000/svg">
<path d="M4.29159 14.4919V17.9194L7.83325 17.0726L10.4999 19.6532L13.1666 17.0726L16.7083 17.9194V14.4919L20.2916 13.6048L18.4999 10.1774L20.2916 6.75L16.7083 5.8629V2.43549L13.1666 3.28226L10.4999 0.701614L7.83325 3.28226L4.29159 2.43549V5.8629L0.708252 6.75L2.49992 10.1774L0.708252 13.6048L4.29159 14.4919ZM4.08325 9.41129L3.29159 7.83871L4.70825 7.51613C5.12492 7.43549 5.45131 7.24059 5.68742 6.93145C5.92353 6.62231 6.04159 6.26613 6.04159 5.8629V4.65323L7.37492 5.01613H7.83325C8.30548 5.01613 8.72214 4.8414 9.08325 4.49194L10.4999 3.12097L11.9166 4.49194C12.2777 4.8414 12.6944 5.01613 13.1666 5.01613C13.3333 5.01613 13.486 4.98925 13.6249 4.93549L14.9583 4.65323V5.8629C14.9583 6.26613 15.0763 6.62231 15.3124 6.93145C15.5485 7.24059 15.8749 7.43549 16.2916 7.51613L17.7083 7.83871L16.9166 9.41129C16.6388 9.92204 16.6388 10.4328 16.9166 10.9435L17.7083 12.5161L16.2916 12.8387C15.8749 12.9194 15.5485 13.1142 15.3124 13.4234C15.0763 13.7325 14.9583 14.0887 14.9583 14.4919V15.7016L13.6249 15.3387H13.1666C12.6944 15.3387 12.2777 15.5134 11.9166 15.8629L10.4999 17.2339L9.08325 15.8629C8.72214 15.5134 8.30548 15.3387 7.83325 15.3387C7.66659 15.3387 7.51381 15.3656 7.37492 15.4194L6.04159 15.7016V14.4919C6.04159 14.0887 5.92353 13.7325 5.68742 13.4234C5.45131 13.1142 5.12492 12.9194 4.70825 12.8387L3.29159 12.5161L4.08325 10.9435C4.36103 10.4328 4.36103 9.92204 4.08325 9.41129ZM9.62492 13.121L13.7916 9.04839C14.1805 8.67204 14.1805 8.26882 13.7916 7.83871C13.3749 7.48925 12.9583 7.48925 12.5416 7.83871L9.62492 10.7016L8.45825 9.57258C8.04159 9.22312 7.62492 9.22312 7.20825 9.57258C6.84714 9.97581 6.84714 10.379 7.20825 10.7823L9.62492 13.121Z" fill="#343434"/>
</svg>
