<svg width="19" height="17" viewBox="0 0 19 17" fill="none" xmlns="http://www.w3.org/2000/svg">
<path d="M9.49992 8.5C9.00546 8.5 8.52211 8.64662 8.11099 8.92133C7.69987 9.19603 7.37944 9.58648 7.19022 10.0433C7.001 10.5001 6.95149 11.0028 7.04795 11.4877C7.14442 11.9727 7.38252 12.4181 7.73215 12.7678C8.08178 13.1174 8.52724 13.3555 9.01219 13.452C9.49714 13.5484 9.99981 13.4989 10.4566 13.3097C10.9134 13.1205 11.3039 12.8 11.5786 12.3889C11.8533 11.9778 11.9999 11.4945 11.9999 11C11.9999 10.337 11.7365 9.70107 11.2677 9.23223C10.7988 8.76339 10.163 8.5 9.49992 8.5ZM9.49992 11.8333C9.3351 11.8333 9.17398 11.7845 9.03694 11.6929C8.8999 11.6013 8.79309 11.4712 8.73002 11.3189C8.66695 11.1666 8.65044 10.9991 8.6826 10.8374C8.71475 10.6758 8.79412 10.5273 8.91066 10.4107C9.02721 10.2942 9.17569 10.2148 9.33734 10.1827C9.49899 10.1505 9.66655 10.167 9.81882 10.2301C9.97109 10.2932 10.1012 10.4 10.1928 10.537C10.2844 10.6741 10.3333 10.8352 10.3333 11C10.3333 11.221 10.2455 11.433 10.0892 11.5893C9.93289 11.7455 9.72093 11.8333 9.49992 11.8333ZM8.90825 6.59167C8.9875 6.66753 9.08096 6.72701 9.18325 6.76667C9.283 6.81076 9.39086 6.83353 9.49992 6.83353C9.60898 6.83353 9.71683 6.81076 9.81658 6.76667C9.91888 6.72701 10.0123 6.66753 10.0916 6.59167L11.9999 4.71667C12.1613 4.55533 12.2519 4.3365 12.2519 4.10833C12.2519 3.88016 12.1613 3.66134 11.9999 3.5C11.8386 3.33866 11.6198 3.24802 11.3916 3.24802C11.1634 3.24802 10.9446 3.33866 10.7833 3.5L10.3333 3.99167V1C10.3333 0.778986 10.2455 0.567025 10.0892 0.410744C9.93289 0.254464 9.72093 0.166667 9.49992 0.166667C9.2789 0.166667 9.06694 0.254464 8.91066 0.410744C8.75438 0.567025 8.66658 0.778986 8.66658 1V3.99167L8.21658 3.5C8.05524 3.33866 7.83642 3.24802 7.60825 3.24802C7.38008 3.24802 7.16126 3.33866 6.99992 3.5C6.83858 3.66134 6.74794 3.88016 6.74794 4.10833C6.74794 4.3365 6.83858 4.55533 6.99992 4.71667L8.90825 6.59167ZM15.3333 11C15.3333 10.8352 15.2844 10.6741 15.1928 10.537C15.1012 10.4 14.9711 10.2932 14.8188 10.2301C14.6665 10.167 14.499 10.1505 14.3373 10.1827C14.1757 10.2148 14.0272 10.2942 13.9107 10.4107C13.7941 10.5273 13.7148 10.6758 13.6826 10.8374C13.6504 10.9991 13.6669 11.1666 13.73 11.3189C13.7931 11.4712 13.8999 11.6013 14.0369 11.6929C14.174 11.7845 14.3351 11.8333 14.4999 11.8333C14.7209 11.8333 14.9329 11.7455 15.0892 11.5893C15.2455 11.433 15.3333 11.221 15.3333 11ZM16.1666 5.16667H13.6666C13.4456 5.16667 13.2336 5.25446 13.0773 5.41074C12.921 5.56702 12.8333 5.77899 12.8333 6C12.8333 6.22101 12.921 6.43298 13.0773 6.58926C13.2336 6.74554 13.4456 6.83333 13.6666 6.83333H16.1666C16.3876 6.83333 16.5996 6.92113 16.7558 7.07741C16.9121 7.23369 16.9999 7.44565 16.9999 7.66667V14.3333C16.9999 14.5543 16.9121 14.7663 16.7558 14.9226C16.5996 15.0789 16.3876 15.1667 16.1666 15.1667H2.83325C2.61224 15.1667 2.40028 15.0789 2.244 14.9226C2.08772 14.7663 1.99992 14.5543 1.99992 14.3333V7.66667C1.99992 7.44565 2.08772 7.23369 2.244 7.07741C2.40028 6.92113 2.61224 6.83333 2.83325 6.83333H5.33325C5.55427 6.83333 5.76623 6.74554 5.92251 6.58926C6.07879 6.43298 6.16658 6.22101 6.16658 6C6.16658 5.77899 6.07879 5.56702 5.92251 5.41074C5.76623 5.25446 5.55427 5.16667 5.33325 5.16667H2.83325C2.17021 5.16667 1.53433 5.43006 1.06548 5.8989C0.596644 6.36774 0.333252 7.00363 0.333252 7.66667V14.3333C0.333252 14.9964 0.596644 15.6323 1.06548 16.1011C1.53433 16.5699 2.17021 16.8333 2.83325 16.8333H16.1666C16.8296 16.8333 17.4655 16.5699 17.9344 16.1011C18.4032 15.6323 18.6666 14.9964 18.6666 14.3333V7.66667C18.6666 7.00363 18.4032 6.36774 17.9344 5.8989C17.4655 5.43006 16.8296 5.16667 16.1666 5.16667ZM3.66658 11C3.66658 11.1648 3.71546 11.3259 3.80703 11.463C3.89859 11.6 4.02874 11.7068 4.18102 11.7699C4.33329 11.833 4.50084 11.8495 4.66249 11.8173C4.82414 11.7852 4.97263 11.7058 5.08917 11.5893C5.20572 11.4727 5.28508 11.3242 5.31724 11.1626C5.34939 11.0009 5.33289 10.8334 5.26982 10.6811C5.20674 10.5288 5.09993 10.3987 4.96289 10.3071C4.82585 10.2155 4.66474 10.1667 4.49992 10.1667C4.2789 10.1667 4.06694 10.2545 3.91066 10.4107C3.75438 10.567 3.66658 10.779 3.66658 11Z" fill="#343434"/>
</svg>
