<svg width="18" height="17" viewBox="0 0 18 17" fill="none" xmlns="http://www.w3.org/2000/svg">
<path d="M4.05 16.2H0.9C0.405 16.2 0 15.795 0 15.3V6.3C0 5.805 0.405 5.4 0.9 5.4H4.05C4.545 5.4 4.95 5.805 4.95 6.3V15.3C4.95 15.795 4.545 16.2 4.05 16.2ZM10.575 0H7.425C6.93 0 6.525 0.405 6.525 0.9V15.3C6.525 15.795 6.93 16.2 7.425 16.2H10.575C11.07 16.2 11.475 15.795 11.475 15.3V0.9C11.475 0.405 11.07 0 10.575 0ZM17.1 7.2H13.95C13.455 7.2 13.05 7.605 13.05 8.1V15.3C13.05 15.795 13.455 16.2 13.95 16.2H17.1C17.595 16.2 18 15.795 18 15.3V8.1C18 7.605 17.595 7.2 17.1 7.2Z" fill="#023887"/>
</svg>
