<svg width="272" height="36" viewBox="0 0 272 36" fill="none" xmlns="http://www.w3.org/2000/svg">
<path d="M22.3414 11.701L17.0062 22.7089C16.2281 24.1767 15.2555 24.9105 14.0885 24.9105C12.9491 24.9105 11.9905 24.1359 11.2124 22.5866L5.79377 11.701V29.0283H0V0H5.71041L14.0885 16.7565L22.4248 0H28.1352V29.0283H22.3414V11.701Z" fill="#29BFFD"/>
<path d="M52 5.74858L42.955 31.6376C42.5382 32.8063 41.9964 33.7169 41.3295 34.3692C40.2179 35.4564 38.6618 36 36.6611 36H34.1185V31.2299H35.7858C36.5638 31.2299 37.1335 31.094 37.4947 30.8222C37.8838 30.5776 38.2172 30.0747 38.4951 29.3137L38.9119 28.1721L31.7426 5.74858H37.4531L41.7046 21.9343L46.2896 5.74858H52Z" fill="#29BFFD"/>
<path d="M76.2905 8.16022C77.606 9.45212 78.2638 11.3582 78.2638 13.8785C78.2638 16.3987 77.606 18.3154 76.2905 19.6285C74.9962 20.9204 73.1608 21.5663 70.7844 21.5663H66.424V28.8094H62V6.19061H70.7844C73.1608 6.19061 74.9962 6.84715 76.2905 8.16022ZM73.8398 13.8785C73.8398 11.3794 72.747 10.1298 70.5616 10.1298H66.424V17.5953H70.5616C71.6225 17.5953 72.4288 17.3094 72.9804 16.7376C73.5533 16.1657 73.8398 15.2127 73.8398 13.8785Z" fill="#29BFFD"/>
<path d="M99.2358 16.4517V18.1671C99.2358 21.9581 98.5144 24.7113 97.0715 26.4268C95.6499 28.1423 93.3583 29 90.1968 29C87.0353 29 84.7437 28.1423 83.3221 26.4268C81.9217 24.7113 81.2215 21.9263 81.2215 18.0718V16.4199C81.2215 12.9042 81.9323 10.2887 83.3539 8.5732C84.7968 6.85773 87.0671 6 90.165 6C93.2841 6 95.5756 6.86832 97.0397 8.60497C98.5038 10.3416 99.2358 12.9572 99.2358 16.4517ZM94.8118 18.0718V16.8964C94.8118 14.8633 94.5572 13.2431 94.0479 12.0359C93.4538 10.6381 92.1807 9.93923 90.2286 9.93923C88.2553 9.93923 86.9716 10.6381 86.3775 12.0359C85.8895 13.1796 85.6455 14.7997 85.6455 16.8964V18.0718C85.6455 20.8039 86.0274 22.6464 86.7913 23.5994C87.0883 24.0018 87.5233 24.3513 88.0962 24.6478C88.6903 24.9231 89.3905 25.0608 90.1968 25.0608C91.0243 25.0608 91.7245 24.9231 92.2974 24.6478C92.8703 24.3725 93.3159 24.0336 93.6342 23.6312C93.9524 23.2288 94.1965 22.6994 94.3662 22.0428C94.6633 21.0051 94.8118 19.6814 94.8118 18.0718Z" fill="#29BFFD"/>
<path d="M129.139 6.19061L123.06 28.8094H119.368L115.199 15.0856L111.03 28.8094H107.338L101.29 6.19061H105.905L109.406 20.4544L112.876 8.66851C113.257 6.91068 114.064 6.03177 115.294 6.03177C115.91 6.03177 116.377 6.26473 116.695 6.73066C117.013 7.17541 117.3 7.82136 117.554 8.66851L120.992 20.4544L124.524 6.19061H129.139Z" fill="#29BFFD"/>
<path d="M147.527 28.8094H139.506C136.96 28.8094 135.167 28.3752 134.127 27.5069C133.109 26.6174 132.6 25.0608 132.6 22.837V6.19061H147.527V10.1298H137.024V15.4351H144.376L144.057 19.3743H137.024V22.5193C137.024 23.4088 137.225 24.023 137.628 24.3619C138.031 24.7007 138.763 24.8702 139.824 24.8702H147.527V28.8094Z" fill="#29BFFD"/>
<path d="M169.662 28.8094H164.537L160.113 20.4227H156.931V28.8094H152.507V11.0511C152.507 9.35681 152.899 8.12845 153.684 7.36602C154.469 6.58241 155.785 6.19061 157.631 6.19061H161.386C163.636 6.19061 165.418 6.87891 166.733 8.25553C168.07 9.61096 168.739 11.337 168.739 13.4337C168.739 14.9586 168.335 16.2822 167.529 17.4047C166.744 18.506 165.768 19.2684 164.601 19.692L169.662 28.8094ZM161.1 16.7376C162.034 16.7376 162.797 16.4199 163.392 15.7845C164.007 15.128 164.315 14.3232 164.315 13.3702C164.315 12.3959 164.018 11.6123 163.423 11.0193C162.851 10.4263 162.076 10.1298 161.1 10.1298H158.904C157.588 10.1298 156.931 10.797 156.931 12.1312V16.7376H161.1Z" fill="#29BFFD"/>
<path d="M183.612 16.8329L191.41 28.8094H186.254L180.907 20.2638L177.82 24.3936V28.8094H173.396V6.19061H177.82V18.8343L186.381 6.19061H190.837L183.612 16.8329Z" fill="white"/>
<path d="M210.126 28.8094H202.105C199.559 28.8094 197.766 28.3752 196.727 27.5069C195.708 26.6174 195.199 25.0608 195.199 22.837V6.19061H210.126V10.1298H199.623V15.4351H206.975L206.657 19.3743H199.623V22.5193C199.623 23.4088 199.824 24.023 200.228 24.3619C200.631 24.7007 201.363 24.8702 202.424 24.8702H210.126V28.8094Z" fill="white"/>
<path d="M232.261 28.8094H227.137L222.713 20.4227H219.53V28.8094H215.106V11.0511C215.106 9.35681 215.498 8.12845 216.283 7.36602C217.069 6.58241 218.384 6.19061 220.23 6.19061H223.986C226.235 6.19061 228.017 6.87891 229.333 8.25553C230.669 9.61096 231.338 11.337 231.338 13.4337C231.338 14.9586 230.935 16.2822 230.128 17.4047C229.343 18.506 228.367 19.2684 227.2 19.692L232.261 28.8094ZM223.699 16.7376C224.633 16.7376 225.397 16.4199 225.991 15.7845C226.606 15.128 226.914 14.3232 226.914 13.3702C226.914 12.3959 226.617 11.6123 226.023 11.0193C225.45 10.4263 224.675 10.1298 223.699 10.1298H221.503C220.188 10.1298 219.53 10.797 219.53 12.1312V16.7376H223.699Z" fill="white"/>
<path d="M251.303 10.1298H245.224V28.8094H240.8V10.1298H234.753V6.19061H251.303V10.1298Z" fill="white"/>
<path d="M272 16.4517V18.1671C272 21.9581 271.279 24.7113 269.836 26.4268C268.414 28.1423 266.123 29 262.961 29C259.8 29 257.508 28.1423 256.086 26.4268C254.686 24.7113 253.986 21.9263 253.986 18.0718V16.4199C253.986 12.9042 254.697 10.2887 256.118 8.5732C257.561 6.85773 259.831 6 262.929 6C266.048 6 268.34 6.86832 269.804 8.60497C271.268 10.3416 272 12.9572 272 16.4517ZM267.576 18.0718V16.8964C267.576 14.8633 267.321 13.2431 266.812 12.0359C266.218 10.6381 264.945 9.93923 262.993 9.93923C261.02 9.93923 259.736 10.6381 259.142 12.0359C258.654 13.1796 258.41 14.7997 258.41 16.8964V18.0718C258.41 20.8039 258.792 22.6464 259.555 23.5994C259.853 24.0018 260.288 24.3513 260.86 24.6478C261.455 24.9231 262.155 25.0608 262.961 25.0608C263.789 25.0608 264.489 24.9231 265.062 24.6478C265.635 24.3725 266.08 24.0336 266.398 23.6312C266.717 23.2288 266.961 22.6994 267.13 22.0428C267.427 21.0051 267.576 19.6814 267.576 18.0718Z" fill="white"/>
</svg>
