<svg width="16" height="15" viewBox="0 0 16 15" fill="none" xmlns="http://www.w3.org/2000/svg">
<path d="M5.75 10H10.25V11.5H5.75V10ZM15.5 10.75H13.25V13C13.25 13.3978 13.092 13.7794 12.8107 14.0607C12.5294 14.342 12.1478 14.5 11.75 14.5H4.25C3.85218 14.5 3.47064 14.342 3.18934 14.0607C2.90804 13.7794 2.75 13.3978 2.75 13V10.75H0.5V4.75C0.5 4.35218 0.658035 3.97064 0.93934 3.68934C1.22064 3.40804 1.60218 3.25 2 3.25H2.75V1.75C2.75 1.35218 2.90804 0.970644 3.18934 0.68934C3.47064 0.408035 3.85218 0.25 4.25 0.25H11.75C12.1478 0.25 12.5294 0.408035 12.8107 0.68934C13.092 0.970644 13.25 1.35218 13.25 1.75V3.25H14C14.3978 3.25 14.7794 3.40804 15.0607 3.68934C15.342 3.97064 15.5 4.35218 15.5 4.75V10.75ZM4.25 3.25H11.75V1.75H4.25V3.25ZM11.75 8.5H4.25V13H11.75V8.5ZM14 5.875C14 5.72721 13.9708 5.58088 13.9142 5.44437C13.8576 5.30785 13.7747 5.18382 13.6701 5.07935C13.5656 4.97488 13.4415 4.89203 13.3049 4.83552C13.1684 4.77901 13.022 4.74995 12.8743 4.75C12.7265 4.75005 12.5801 4.77921 12.4436 4.83581C12.3071 4.89241 12.1831 4.97534 12.0786 5.07988C11.9741 5.18441 11.8913 5.3085 11.8348 5.44506C11.7783 5.58161 11.7492 5.72796 11.7493 5.87575C11.7493 6.17422 11.868 6.46042 12.0791 6.6714C12.2902 6.88238 12.5765 7.00085 12.875 7.00075C13.1735 7.00065 13.4597 6.88199 13.6707 6.67087C13.8816 6.45975 14.0001 6.17347 14 5.875Z" fill="#A3A3A3"/>
</svg>
