<svg width="19" height="18" viewBox="0 0 19 18" fill="none" xmlns="http://www.w3.org/2000/svg">
<path d="M9.5 10.125C12.2949 10.125 14.5625 7.85742 14.5625 5.0625C14.5625 2.26758 12.2949 0 9.5 0C6.70508 0 4.4375 2.26758 4.4375 5.0625C4.4375 7.85742 6.70508 10.125 9.5 10.125ZM14 11.25H12.0629C11.2824 11.6086 10.4141 11.8125 9.5 11.8125C8.58594 11.8125 7.72109 11.6086 6.93711 11.25H5C2.51445 11.25 0.5 13.2645 0.5 15.75V16.3125C0.5 17.2441 1.25586 18 2.1875 18H16.8125C17.7441 18 18.5 17.2441 18.5 16.3125V15.75C18.5 13.2645 16.4855 11.25 14 11.25Z" fill="white"/>
</svg>
